<svg width="16" height="16" viewBox="0 0 16 16" fill="none" xmlns="http://www.w3.org/2000/svg">
<path d="M14.789 7.89071L8.35311 1.45946C8.30677 1.41303 8.25172 1.37619 8.19113 1.35106C8.13054 1.32593 8.06558 1.31299 7.99998 1.31299C7.93438 1.31299 7.86943 1.32593 7.80883 1.35106C7.74824 1.37619 7.6932 1.41303 7.64686 1.45946L1.21093 7.89071C1.02343 8.07821 0.917175 8.3329 0.917175 8.59852C0.917175 9.15008 1.36561 9.59852 1.91717 9.59852H2.5953V14.1876C2.5953 14.4641 2.81874 14.6876 3.0953 14.6876H6.99998V11.1876H8.74998V14.6876H12.9047C13.1812 14.6876 13.4047 14.4641 13.4047 14.1876V9.59852H14.0828C14.3484 9.59852 14.6031 9.49383 14.7906 9.30477C15.1797 8.91415 15.1797 8.28133 14.789 7.89071Z" fill="#999999"/>
</svg>
