<svg width="16" height="16" viewBox="0 0 16 16" fill="none" xmlns="http://www.w3.org/2000/svg">
<path d="M7.99998 1.33325C4.32398 1.33325 1.33331 4.32392 1.33331 7.99992C1.33331 11.6759 4.32398 14.6666 7.99998 14.6666C11.676 14.6666 14.6666 11.6759 14.6666 7.99992C14.6666 4.32392 11.676 1.33325 7.99998 1.33325ZM8.66665 11.9999H7.33331V10.6666H8.66665V11.9999ZM9.31731 8.74325C9.18665 8.84859 9.06065 8.94925 8.96065 9.04925C8.68865 9.32059 8.66731 9.56725 8.66665 9.57792V9.66659H7.33331V9.55525C7.33331 9.47659 7.35265 8.77059 8.01731 8.10592C8.14731 7.97592 8.30865 7.84392 8.47798 7.70659C8.96731 7.30992 9.28865 7.02059 9.28865 6.62192C9.2809 6.28513 9.14165 5.96475 8.90069 5.72933C8.65973 5.49391 8.3362 5.36215 7.99932 5.36223C7.66244 5.36232 7.33898 5.49425 7.09814 5.7298C6.8573 5.96534 6.71822 6.28579 6.71065 6.62259H5.37731C5.37731 5.17659 6.55398 3.99992 7.99998 3.99992C9.44598 3.99992 10.6226 5.17659 10.6226 6.62259C10.6226 7.68725 9.83665 8.32259 9.31731 8.74325Z" fill="#999999"/>
</svg>
