<svg width="17" height="16" viewBox="0 0 17 16" fill="none" xmlns="http://www.w3.org/2000/svg">
<g clip-path="url(#clip0_2142_13400)">
<path d="M8.93945 16C11.0612 16 13.096 15.1571 14.5963 13.6569C16.0966 12.1566 16.9395 10.1217 16.9395 8C16.9395 5.87827 16.0966 3.84344 14.5963 2.34315C13.096 0.842855 11.0612 0 8.93945 0C6.81772 0 4.78289 0.842855 3.2826 2.34315C1.78231 3.84344 0.939453 5.87827 0.939453 8C0.939453 10.1217 1.78231 12.1566 3.2826 13.6569C4.78289 15.1571 6.81772 16 8.93945 16V16ZM9.86945 6.588L8.86945 11.293C8.79945 11.633 8.89845 11.826 9.17345 11.826C9.36745 11.826 9.66045 11.756 9.85945 11.58L9.77145 11.996C9.48445 12.342 8.85145 12.594 8.30645 12.594C7.60345 12.594 7.30445 12.172 7.49845 11.275L8.23645 7.807C8.30045 7.514 8.24245 7.408 7.94945 7.337L7.49845 7.256L7.58045 6.875L9.87045 6.588H9.86945ZM8.93945 5.5C8.67424 5.5 8.41988 5.39464 8.23235 5.20711C8.04481 5.01957 7.93945 4.76522 7.93945 4.5C7.93945 4.23478 8.04481 3.98043 8.23235 3.79289C8.41988 3.60536 8.67424 3.5 8.93945 3.5C9.20467 3.5 9.45902 3.60536 9.64656 3.79289C9.8341 3.98043 9.93945 4.23478 9.93945 4.5C9.93945 4.76522 9.8341 5.01957 9.64656 5.20711C9.45902 5.39464 9.20467 5.5 8.93945 5.5V5.5Z" fill="#5BC287"/>
</g>
<defs>
<clipPath id="clip0_2142_13400">
<rect width="16" height="16" fill="white" transform="translate(0.939453)"/>
</clipPath>
</defs>
</svg>
