<svg width="17" height="16" viewBox="0 0 17 16" fill="none" xmlns="http://www.w3.org/2000/svg">
<path fill-rule="evenodd" clip-rule="evenodd" d="M9.00503 12.0939C7.56303 12.0939 6.09803 11.2379 5.24303 10.1049C1.14103 10.1049 1.01703 15.9649 1.01703 15.9649H16.992C16.992 15.9649 17.314 10.0789 12.701 10.0789C11.847 11.2259 10.447 12.0939 9.00503 12.0939Z" fill="#999999"/>
<path fill-rule="evenodd" clip-rule="evenodd" d="M12.441 5.06887C12.441 6.75487 10.902 9.97887 9.002 9.97887C7.105 9.97887 5.565 6.75387 5.565 5.06887C5.565 3.38387 7.104 2.01587 9.002 2.01587C10.902 2.01687 12.441 3.38487 12.441 5.06887Z" fill="#999999"/>
<path fill-rule="evenodd" clip-rule="evenodd" d="M13.9751 3.61397C13.9751 3.29797 13.5351 3.04297 12.9891 3.04097V2.38997C12.9891 2.29297 13.0261 0.0219727 9.01406 0.0219727C5.00406 0.0219727 5.04106 2.29297 5.04106 2.38997V3.06397C5.03106 3.06397 5.02306 3.06097 5.01406 3.06097C4.47106 3.06097 4.03406 3.31197 4.03406 3.62297V6.37697C4.03406 6.68597 4.47206 6.93797 5.01406 6.93797C5.55606 6.93797 5.99606 6.68597 5.99606 6.37697V3.62297C5.99606 3.57997 5.96906 3.54097 5.95306 3.50097V2.74997C5.95306 2.68097 5.66506 0.966973 9.01406 0.966973C12.3641 0.966973 12.0161 2.68097 12.0161 2.74997V3.54097C12.0101 3.56597 11.9911 3.58797 11.9911 3.61397V6.43097C11.9911 6.74797 12.4341 7.00497 12.9831 7.00497C12.9951 7.00497 13.0041 7.00097 13.0161 7.00097V8.02997H12.0321V8.99997H13.9851L13.9751 3.61397Z" fill="#999999"/>
</svg>
