<svg width="19" height="20" viewBox="0 0 19 20" fill="none" xmlns="http://www.w3.org/2000/svg">
<g clip-path="url(#clip0_2142_13693)">
<path d="M17.5723 9.06504C17.7581 8.92181 17.896 8.722 17.9665 8.49363C18.037 8.26525 18.0367 8.01977 17.9656 7.79159C17.8945 7.56341 17.7561 7.36399 17.5699 7.22127C17.3837 7.07856 17.159 6.99972 16.9273 6.99581L12.4273 6.81992C12.4052 6.81834 12.384 6.81018 12.3662 6.79641C12.3485 6.78264 12.335 6.76386 12.3273 6.74233L10.7723 2.39694C10.6942 2.17586 10.5523 1.98497 10.3658 1.85009C10.1793 1.71522 9.95732 1.64289 9.72981 1.64289C9.50229 1.64289 9.28027 1.71522 9.0938 1.85009C8.90734 1.98497 8.76544 2.17586 8.68731 2.39694L7.13731 6.75785C7.12965 6.77938 7.11613 6.79816 7.09839 6.81193C7.08064 6.8257 7.05943 6.83386 7.03731 6.83544L2.53731 7.01133C2.30561 7.01524 2.08091 7.09408 1.8947 7.23679C1.7085 7.37951 1.57014 7.57893 1.49901 7.80711C1.42789 8.03528 1.42757 8.28077 1.4981 8.50914C1.56863 8.73752 1.70648 8.93733 1.89231 9.08056L5.42231 11.9516C5.43997 11.966 5.45318 11.9854 5.46029 12.0075C5.4674 12.0296 5.4681 12.0533 5.46231 12.0758L4.24731 16.5298C4.18435 16.7566 4.19045 16.998 4.26478 17.2211C4.33911 17.4442 4.47806 17.6382 4.66273 17.7766C4.8474 17.9151 5.06883 17.9914 5.29688 17.9951C5.52494 17.9988 5.74855 17.9297 5.93731 17.7972L9.66731 15.2107C9.68568 15.1975 9.70748 15.1905 9.72981 15.1905C9.75214 15.1905 9.77393 15.1975 9.79231 15.2107L13.5223 17.7972C13.7085 17.9342 13.9313 18.0078 14.1598 18.0078C14.3883 18.0078 14.6111 17.9342 14.7973 17.7972C14.982 17.66 15.1211 17.467 15.1954 17.2446C15.2697 17.0223 15.2756 16.7816 15.2123 16.5557L13.9873 12.0861C13.9808 12.0637 13.9812 12.0397 13.9883 12.0175C13.9955 11.9953 14.0091 11.9759 14.0273 11.962L17.5723 9.06504Z" fill="#F4C757"/>
</g>
<defs>
<clipPath id="clip0_2142_13693">
<rect width="18" height="18.6231" fill="white" transform="translate(0.572266 0.384615)"/>
</clipPath>
</defs>
</svg>
