<svg width="16" height="16" viewBox="0 0 16 16" fill="none" xmlns="http://www.w3.org/2000/svg">
<path fill-rule="evenodd" clip-rule="evenodd" d="M8.00002 0.666748C3.95002 0.666748 0.666687 3.95008 0.666687 8.00008C0.666687 12.0501 3.95002 15.3334 8.00002 15.3334C12.05 15.3334 15.3334 12.0501 15.3334 8.00008C15.3334 3.95008 12.05 0.666748 8.00002 0.666748ZM8.66669 10.6667C8.66669 10.8436 8.59645 11.0131 8.47142 11.1382C8.3464 11.2632 8.17683 11.3334 8.00002 11.3334C7.82321 11.3334 7.65364 11.2632 7.52862 11.1382C7.40359 11.0131 7.33335 10.8436 7.33335 10.6667V8.66675H5.33335C5.15654 8.66675 4.98697 8.59651 4.86195 8.47149C4.73692 8.34646 4.66669 8.17689 4.66669 8.00008C4.66669 7.82327 4.73692 7.6537 4.86195 7.52868C4.98697 7.40365 5.15654 7.33341 5.33335 7.33341H7.33335V5.33341C7.33335 5.1566 7.40359 4.98703 7.52862 4.86201C7.65364 4.73699 7.82321 4.66675 8.00002 4.66675C8.17683 4.66675 8.3464 4.73699 8.47142 4.86201C8.59645 4.98703 8.66669 5.1566 8.66669 5.33341V7.33341H10.6667C10.8435 7.33341 11.0131 7.40365 11.1381 7.52868C11.2631 7.6537 11.3334 7.82327 11.3334 8.00008C11.3334 8.17689 11.2631 8.34646 11.1381 8.47149C11.0131 8.59651 10.8435 8.66675 10.6667 8.66675H8.66669V10.6667Z" fill="#999999"/>
</svg>
