<svg width="40" height="30" viewBox="0 0 40 30" fill="none" xmlns="http://www.w3.org/2000/svg">
<path d="M3.75 0C2.75544 0 1.80161 0.395088 1.09835 1.09835C0.395088 1.80161 0 2.75544 0 3.75L0 26.25C0 27.2446 0.395088 28.1984 1.09835 28.9017C1.80161 29.6049 2.75544 30 3.75 30H36.25C37.2446 30 38.1984 29.6049 38.9016 28.9017C39.6049 28.1984 40 27.2446 40 26.25V3.75C40 2.75544 39.6049 1.80161 38.9016 1.09835C38.1984 0.395088 37.2446 0 36.25 0H3.75ZM36.25 2.5C36.5815 2.5 36.8995 2.6317 37.1339 2.86612C37.3683 3.10054 37.5 3.41848 37.5 3.75V18.75L28.0625 13.8825C27.8281 13.7651 27.5626 13.7243 27.3037 13.766C27.0449 13.8078 26.8057 13.9298 26.62 14.115L17.345 23.39L10.695 18.96C10.4549 18.8001 10.1669 18.7283 9.87985 18.7565C9.59279 18.7848 9.32433 18.9114 9.12 19.115L2.505 25V26.35C2.50201 26.3167 2.50034 26.2834 2.5 26.25V3.75C2.5 3.41848 2.6317 3.10054 2.86612 2.86612C3.10054 2.6317 3.41848 2.5 3.75 2.5H36.25Z" fill="#263238" fill-opacity="0.5"/>
</svg>
