<svg width="18" height="18" viewBox="0 0 18 18" fill="none" xmlns="http://www.w3.org/2000/svg">
<path d="M7.0275 4.1325C6.89204 4.61839 6.8239 5.12058 6.825 5.625C6.825 8.685 9.315 11.175 12.375 11.175C12.885 11.175 13.3875 11.1075 13.8675 10.9725C13.4735 11.9405 12.8001 12.7693 11.9332 13.353C11.0663 13.9367 10.0451 14.249 9 14.25C6.105 14.25 3.75 11.895 3.75 9C3.75 6.8025 5.1075 4.9125 7.0275 4.1325ZM9 2.25C7.66498 2.25 6.35994 2.64588 5.2499 3.38758C4.13987 4.12928 3.27471 5.18349 2.76382 6.41689C2.25292 7.65029 2.11925 9.00749 2.3797 10.3169C2.64015 11.6262 3.28303 12.829 4.22703 13.773C5.17104 14.717 6.37377 15.3599 7.68314 15.6203C8.99252 15.8808 10.3497 15.7471 11.5831 15.2362C12.8165 14.7253 13.8707 13.8601 14.6124 12.7501C15.3541 11.6401 15.75 10.335 15.75 9C15.75 8.655 15.72 8.31 15.675 7.98C15.3002 8.50549 14.8051 8.9336 14.231 9.22849C13.6568 9.52338 13.0204 9.67649 12.375 9.675C11.5164 9.67502 10.68 9.40232 9.9864 8.89624C9.29281 8.39016 8.77789 7.67686 8.5159 6.85921C8.25392 6.04155 8.25842 5.16182 8.52875 4.34689C8.79908 3.53196 9.32127 2.82396 10.02 2.325C9.69 2.28 9.345 2.25 9 2.25Z" fill="#999999"/>
</svg>
