<svg width="100" height="100" viewBox="0 0 100 100" fill="none" xmlns="http://www.w3.org/2000/svg">
<path d="M50 5.55556C41.2097 5.55556 32.6169 8.16218 25.308 13.0458C17.9992 17.9294 12.3026 24.8707 8.9387 32.9918C5.57481 41.113 4.69466 50.0493 6.40956 58.6707C8.12446 67.2921 12.3574 75.2113 18.573 81.427C24.7887 87.6426 32.708 91.8756 41.3293 93.5905C49.9507 95.3054 58.887 94.4252 67.0082 91.0613C75.1293 87.6974 82.0706 82.0009 86.9542 74.692C91.8378 67.3832 94.4445 58.7903 94.4445 50C94.4445 38.2126 89.7619 26.908 81.427 18.573C73.092 10.2381 61.7874 5.55556 50 5.55556V5.55556ZM72.2222 66.9444C72.9589 67.6812 73.3728 68.6804 73.3728 69.7222C73.3728 70.7641 72.9589 71.7633 72.2222 72.5C71.4855 73.2367 70.4863 73.6506 69.4445 73.6506C68.4026 73.6506 67.4034 73.2367 66.6667 72.5L50 55.8333L33.3333 72.5556C32.9686 72.9203 32.5355 73.2097 32.0589 73.4071C31.5823 73.6045 31.0715 73.7061 30.5556 73.7061C30.0397 73.7061 29.5289 73.6045 29.0522 73.4071C28.5756 73.2097 28.1426 72.9203 27.7778 72.5556C27.413 72.1908 27.1236 71.7577 26.9262 71.2811C26.7288 70.8045 26.6272 70.2937 26.6272 69.7778C26.6272 69.2619 26.7288 68.7511 26.9262 68.2745C27.1236 67.7978 27.413 67.3648 27.7778 67L44.4445 50.2222L27.3056 32.9444C26.5689 32.2077 26.155 31.2085 26.155 30.1667C26.155 29.1248 26.5689 28.1256 27.3056 27.3889C28.0423 26.6522 29.0415 26.2383 30.0833 26.2383C31.1252 26.2383 32.1244 26.6522 32.8611 27.3889L50 44.7222L67.1389 27.5833C67.5037 27.2186 67.9367 26.9292 68.4134 26.7318C68.89 26.5344 69.4008 26.4327 69.9167 26.4327C70.4326 26.4327 70.9434 26.5344 71.42 26.7318C71.8966 26.9292 72.3297 27.2186 72.6945 27.5833C73.0592 27.9481 73.3486 28.3812 73.546 28.8578C73.7434 29.3344 73.845 29.8452 73.845 30.3611C73.845 30.877 73.7434 31.3878 73.546 31.8644C73.3486 32.341 73.0592 32.7741 72.6945 33.1389L55.5556 50.2222L72.2222 66.9444Z" fill="white"/>
</svg>
