<svg width="16" height="16" viewBox="0 0 16 16" fill="none" xmlns="http://www.w3.org/2000/svg">
<path d="M14.7889 7.89059L8.35292 1.45934C8.30658 1.41291 8.25154 1.37607 8.19095 1.35094C8.13035 1.3258 8.0654 1.31287 7.9998 1.31287C7.9342 1.31287 7.86924 1.3258 7.80865 1.35094C7.74806 1.37607 7.69301 1.41291 7.64667 1.45934L1.21074 7.89059C1.02324 8.07809 0.916992 8.33278 0.916992 8.5984C0.916992 9.14996 1.36543 9.5984 1.91699 9.5984H2.59512V14.1875C2.59512 14.464 2.81855 14.6875 3.09512 14.6875H6.9998V11.1875H8.7498V14.6875H12.9045C13.181 14.6875 13.4045 14.464 13.4045 14.1875V9.5984H14.0826C14.3482 9.5984 14.6029 9.49371 14.7904 9.30465C15.1795 8.91403 15.1795 8.28121 14.7889 7.89059Z" fill="#999999"/>
</svg>
