<svg width="20" height="20" viewBox="0 0 20 20" fill="none" xmlns="http://www.w3.org/2000/svg">
<path d="M9.28571 0H10.7143V3.57143H9.28571V0ZM14.0629 4.92857L16.5671 2.42429L17.5771 3.43429L15.0729 5.93857L14.0629 4.92857ZM16.4286 9.28571H20V10.7143H16.4286V9.28571ZM14.0629 15.0714L15.0729 14.0621L17.5771 16.5664L16.5671 17.5764L14.0629 15.0714ZM9.28571 16.4286H10.7143V20H9.28571V16.4286ZM2.42429 16.5657L4.92857 14.0614L5.93857 15.0714L3.435 17.5757L2.42429 16.5657ZM0 9.28571H3.57143V10.7143H0V9.28571ZM2.425 3.43429L3.435 2.42429L5.93929 4.92857L4.92857 5.93857L2.425 3.43429ZM10 7.14286C10.5651 7.14286 11.1175 7.31043 11.5873 7.62437C12.0572 7.93832 12.4234 8.38454 12.6397 8.90662C12.8559 9.42869 12.9125 10.0032 12.8022 10.5574C12.692 11.1116 12.4199 11.6207 12.0203 12.0203C11.6207 12.4199 11.1116 12.692 10.5574 12.8022C10.0032 12.9125 9.42869 12.8559 8.90662 12.6397C8.38454 12.4234 7.93832 12.0572 7.62437 11.5873C7.31043 11.1175 7.14286 10.5651 7.14286 10C7.1438 9.24253 7.44513 8.51635 7.98074 7.98074C8.51635 7.44513 9.24253 7.1438 10 7.14286V7.14286ZM10 5.71429C9.15237 5.71429 8.32377 5.96564 7.61898 6.43656C6.9142 6.90748 6.36489 7.57682 6.04052 8.35993C5.71614 9.14304 5.63127 10.0048 5.79663 10.8361C5.962 11.6674 6.37017 12.4311 6.96954 13.0305C7.56891 13.6298 8.33255 14.038 9.1639 14.2034C9.99525 14.3687 10.857 14.2839 11.6401 13.9595C12.4232 13.6351 13.0925 13.0858 13.5634 12.381C14.0344 11.6762 14.2857 10.8476 14.2857 10C14.2857 8.86336 13.8342 7.77327 13.0305 6.96954C12.2267 6.16582 11.1366 5.71429 10 5.71429Z" fill="#999999"/>
</svg>
