<svg width="20" height="20" viewBox="0 0 20 20" fill="none" xmlns="http://www.w3.org/2000/svg">
<path d="M10 11.25C9.38194 11.25 8.77775 11.0667 8.26384 10.7233C7.74994 10.38 7.3494 9.89191 7.11288 9.32089C6.87635 8.74987 6.81447 8.12154 6.93505 7.51534C7.05563 6.90915 7.35325 6.35233 7.79029 5.91529C8.22733 5.47825 8.78415 5.18063 9.39034 5.06005C9.99654 4.93947 10.6249 5.00135 11.1959 5.23788C11.7669 5.4744 12.255 5.87494 12.5983 6.38884C12.9417 6.90275 13.125 7.50694 13.125 8.125C13.124 8.9535 12.7945 9.74778 12.2086 10.3336C11.6228 10.9195 10.8285 11.249 10 11.25ZM10 6.25C9.62916 6.25 9.26665 6.35997 8.95831 6.566C8.64997 6.77202 8.40964 7.06486 8.26773 7.40747C8.12581 7.75008 8.08868 8.12708 8.16103 8.4908C8.23338 8.85451 8.41195 9.1886 8.67418 9.45083C8.9364 9.71305 9.27049 9.89163 9.63421 9.96397C9.99792 10.0363 10.3749 9.99919 10.7175 9.85728C11.0601 9.71536 11.353 9.47504 11.559 9.1667C11.765 8.85835 11.875 8.49584 11.875 8.125C11.8745 7.62787 11.6768 7.15125 11.3253 6.79972C10.9738 6.4482 10.4971 6.2505 10 6.25Z" fill="#999999"/>
<path d="M9.8877 18.5L4.6152 12.2819C4.54194 12.1885 4.46944 12.0945 4.3977 12C3.49707 10.8136 3.01052 9.36452 3.0127 7.875C3.0127 6.05164 3.73703 4.30295 5.02634 3.01364C6.31566 1.72433 8.06434 1 9.8877 1C11.7111 1 13.4598 1.72433 14.7491 3.01364C16.0384 4.30295 16.7627 6.05164 16.7627 7.875C16.7649 9.36384 16.2786 10.8123 15.3783 11.9981L15.3777 12C15.3777 12 15.1902 12.2463 15.1621 12.2794L9.8877 18.5ZM5.3952 11.2469C5.39645 11.2469 5.54145 11.4394 5.57458 11.4806L9.8877 16.5675L14.2065 11.4737C14.234 11.4394 14.3802 11.2456 14.3808 11.245C15.1165 10.2757 15.5141 9.09189 15.5127 7.875C15.5127 6.38316 14.9201 4.95242 13.8652 3.89752C12.8103 2.84263 11.3795 2.25 9.8877 2.25C8.39586 2.25 6.96512 2.84263 5.91023 3.89752C4.85534 4.95242 4.2627 6.38316 4.2627 7.875C4.26139 9.09265 4.65944 10.2771 5.39583 11.2469H5.3952Z" fill="#999999"/>
</svg>
