<svg width="16" height="16" viewBox="0 0 16 16" fill="none" xmlns="http://www.w3.org/2000/svg">
<path fill-rule="evenodd" clip-rule="evenodd" d="M7.99984 0.666626C3.94984 0.666626 0.666504 3.94996 0.666504 7.99996C0.666504 12.05 3.94984 15.3333 7.99984 15.3333C12.0498 15.3333 15.3332 12.05 15.3332 7.99996C15.3332 3.94996 12.0498 0.666626 7.99984 0.666626ZM8.6665 10.6666C8.6665 10.8434 8.59627 11.013 8.47124 11.138C8.34622 11.2631 8.17665 11.3333 7.99984 11.3333C7.82303 11.3333 7.65346 11.2631 7.52843 11.138C7.40341 11.013 7.33317 10.8434 7.33317 10.6666V8.66663H5.33317C5.15636 8.66663 4.98679 8.59639 4.86177 8.47136C4.73674 8.34634 4.6665 8.17677 4.6665 7.99996C4.6665 7.82315 4.73674 7.65358 4.86177 7.52855C4.98679 7.40353 5.15636 7.33329 5.33317 7.33329H7.33317V5.33329C7.33317 5.15648 7.40341 4.98691 7.52843 4.86189C7.65346 4.73686 7.82303 4.66663 7.99984 4.66663C8.17665 4.66663 8.34622 4.73686 8.47124 4.86189C8.59627 4.98691 8.6665 5.15648 8.6665 5.33329V7.33329H10.6665C10.8433 7.33329 11.0129 7.40353 11.1379 7.52855C11.2629 7.65358 11.3332 7.82315 11.3332 7.99996C11.3332 8.17677 11.2629 8.34634 11.1379 8.47136C11.0129 8.59639 10.8433 8.66663 10.6665 8.66663H8.6665V10.6666Z" fill="#999999"/>
</svg>
