<svg width="32" height="40" viewBox="0 0 32 40" fill="none" xmlns="http://www.w3.org/2000/svg">
<path d="M15.7143 40L3.66287 25.7871C3.49542 25.5737 3.3297 25.359 3.16573 25.1429C1.10713 22.4311 -0.00497313 19.1189 1.67184e-05 15.7143C1.67184e-05 11.5466 1.65562 7.54961 4.60263 4.60261C7.54963 1.65561 11.5466 0 15.7143 0C19.882 0 23.879 1.65561 26.826 4.60261C29.773 7.54961 31.4286 11.5466 31.4286 15.7143C31.4336 19.1173 30.322 22.4281 28.2643 25.1386L28.2629 25.1429C28.2629 25.1429 27.8343 25.7057 27.77 25.7814L15.7143 40ZM5.44573 23.4214C5.44859 23.4214 5.78002 23.8614 5.85573 23.9557L15.7143 35.5829L25.5857 23.94C25.6486 23.8614 25.9829 23.4186 25.9843 23.4171C27.6659 21.2016 28.5748 18.4958 28.5715 15.7143C28.5715 12.3044 27.2169 9.03409 24.8057 6.62291C22.3945 4.21173 19.1242 2.85714 15.7143 2.85714C12.3044 2.85714 9.03411 4.21173 6.62293 6.62291C4.21175 9.03409 2.85716 12.3044 2.85716 15.7143C2.85416 18.4975 3.76398 21.2049 5.44716 23.4214H5.44573Z" fill="#263238" fill-opacity="0.5"/>
<path d="M22.857 22.8571H19.9999V11.4286H11.4284V22.8571H8.57129V11.4286C8.57205 10.671 8.87331 9.94474 9.40896 9.40908C9.94462 8.87343 10.6709 8.57217 11.4284 8.57141H19.9999C20.7574 8.57217 21.4837 8.87343 22.0193 9.40908C22.555 9.94474 22.8562 10.671 22.857 11.4286V22.8571Z" fill="#263238" fill-opacity="0.5"/>
<path d="M14.2856 20H17.1428V22.8571H14.2856V20Z" fill="#263238" fill-opacity="0.5"/>
<path d="M14.2856 14.2858H17.1428V17.1429H14.2856V14.2858Z" fill="#263238" fill-opacity="0.5"/>
</svg>
