<svg width="22" height="23" viewBox="0 0 22 23" fill="none" xmlns="http://www.w3.org/2000/svg">
<path d="M17.6668 21.609C19.5078 21.609 21.0002 20.2659 21.0002 18.609C21.0002 16.9521 19.5078 15.609 17.6668 15.609C15.8258 15.609 14.3335 16.9521 14.3335 18.609C14.3335 20.2659 15.8258 21.609 17.6668 21.609Z" stroke="#5BC287" stroke-width="2" stroke-linecap="round" stroke-linejoin="round"/>
<path d="M17.6668 7.60901C19.5078 7.60901 21.0002 6.26586 21.0002 4.60901C21.0002 2.95216 19.5078 1.60901 17.6668 1.60901C15.8258 1.60901 14.3335 2.95216 14.3335 4.60901C14.3335 6.26586 15.8258 7.60901 17.6668 7.60901Z" stroke="#5BC287" stroke-width="2" stroke-linecap="round" stroke-linejoin="round"/>
<path d="M4.33333 14.609C6.17428 14.609 7.66667 13.2659 7.66667 11.609C7.66667 9.95211 6.17428 8.60901 4.33333 8.60901C2.49239 8.60901 1 9.95211 1 11.609C1 13.2659 2.49239 14.609 4.33333 14.609Z" stroke="#5BC287" stroke-width="2" stroke-linecap="round" stroke-linejoin="round"/>
<path d="M14.8886 6.10889L7.11084 10.1089" stroke="#5BC287" stroke-width="2"/>
<path d="M7.11084 13.109L14.8886 17.109" stroke="#5BC287" stroke-width="2"/>
</svg>
