<svg width="19" height="20" viewBox="0 0 19 20" fill="none" xmlns="http://www.w3.org/2000/svg">
<g clip-path="url(#clip0_2142_13705)">
<path d="M17.7149 9.06504C17.9007 8.92181 18.0386 8.722 18.1091 8.49363C18.1796 8.26525 18.1793 8.01977 18.1082 7.79159C18.0371 7.56341 17.8987 7.36399 17.7125 7.22127C17.5263 7.07856 17.3016 6.99972 17.0699 6.99581L12.5699 6.81992C12.5478 6.81834 12.5265 6.81018 12.5088 6.79641C12.4911 6.78264 12.4775 6.76386 12.4699 6.74233L10.9149 2.39694C10.8368 2.17586 10.6949 1.98497 10.5084 1.85009C10.3219 1.71522 10.0999 1.64289 9.87239 1.64289C9.64487 1.64289 9.42285 1.71522 9.23638 1.85009C9.04992 1.98497 8.90801 2.17586 8.82989 2.39694L7.27989 6.75785C7.27222 6.77938 7.25871 6.79816 7.24097 6.81193C7.22322 6.8257 7.20201 6.83386 7.17989 6.83544L2.67989 7.01133C2.44819 7.01524 2.22349 7.09408 2.03728 7.23679C1.85108 7.37951 1.71272 7.57893 1.64159 7.80711C1.57047 8.03528 1.57015 8.28077 1.64068 8.50914C1.71121 8.73752 1.84906 8.93733 2.03489 9.08056L5.56489 11.9516C5.58255 11.966 5.59576 11.9854 5.60287 12.0075C5.60998 12.0296 5.61068 12.0533 5.60489 12.0758L4.38989 16.5298C4.32693 16.7566 4.33302 16.998 4.40736 17.2211C4.48169 17.4442 4.62064 17.6382 4.80531 17.7766C4.98998 17.9151 5.21141 17.9914 5.43946 17.9951C5.66752 17.9988 5.89113 17.9297 6.07989 17.7972L9.80989 15.2107C9.82826 15.1975 9.85006 15.1905 9.87239 15.1905C9.89471 15.1905 9.91651 15.1975 9.93489 15.2107L13.6649 17.7972C13.8511 17.9342 14.0739 18.0078 14.3024 18.0078C14.5309 18.0078 14.7537 17.9342 14.9399 17.7972C15.1246 17.66 15.2637 17.467 15.338 17.2446C15.4123 17.0223 15.4182 16.7816 15.3549 16.5557L14.1299 12.0861C14.1234 12.0637 14.1238 12.0397 14.1309 12.0175C14.1381 11.9953 14.1517 11.9759 14.1699 11.962L17.7149 9.06504Z" fill="#DDDDDD"/>
</g>
<defs>
<clipPath id="clip0_2142_13705">
<rect width="18" height="18.6231" fill="white" transform="translate(0.714844 0.384615)"/>
</clipPath>
</defs>
</svg>
