<svg width="17" height="16" viewBox="0 0 17 16" fill="none" xmlns="http://www.w3.org/2000/svg">
<path fill-rule="evenodd" clip-rule="evenodd" d="M9.00509 12.094C7.56309 12.094 6.09809 11.238 5.24309 10.105C1.14109 10.105 1.01709 15.965 1.01709 15.965H16.9921C16.9921 15.965 17.3141 10.079 12.7011 10.079C11.8471 11.226 10.4471 12.094 9.00509 12.094Z" fill="#999999"/>
<path fill-rule="evenodd" clip-rule="evenodd" d="M12.4409 5.06899C12.4409 6.75499 10.9019 9.97899 9.00194 9.97899C7.10494 9.97899 5.56494 6.75399 5.56494 5.06899C5.56494 3.38399 7.10394 2.01599 9.00194 2.01599C10.9019 2.01699 12.4409 3.38499 12.4409 5.06899Z" fill="#999999"/>
<path fill-rule="evenodd" clip-rule="evenodd" d="M13.9752 3.61397C13.9752 3.29797 13.5352 3.04297 12.9892 3.04097V2.38997C12.9892 2.29297 13.0262 0.0219727 9.01418 0.0219727C5.00418 0.0219727 5.04118 2.29297 5.04118 2.38997V3.06397C5.03118 3.06397 5.02318 3.06097 5.01418 3.06097C4.47118 3.06097 4.03418 3.31197 4.03418 3.62297V6.37697C4.03418 6.68597 4.47218 6.93797 5.01418 6.93797C5.55618 6.93797 5.99618 6.68597 5.99618 6.37697V3.62297C5.99618 3.57997 5.96918 3.54097 5.95318 3.50097V2.74997C5.95318 2.68097 5.66518 0.966973 9.01418 0.966973C12.3642 0.966973 12.0162 2.68097 12.0162 2.74997V3.54097C12.0102 3.56597 11.9912 3.58797 11.9912 3.61397V6.43097C11.9912 6.74797 12.4342 7.00497 12.9832 7.00497C12.9952 7.00497 13.0042 7.00097 13.0162 7.00097V8.02997H12.0322V8.99997H13.9852L13.9752 3.61397Z" fill="#999999"/>
</svg>
