<svg width="20" height="20" viewBox="0 0 20 20" fill="none" xmlns="http://www.w3.org/2000/svg">
<path d="M4.97936 4.0626H2.00878C1.79301 4.06322 1.58402 4.13798 1.41681 4.27435C1.24961 4.41073 1.13436 4.60043 1.09038 4.81166L1.03178 5.09721C0.470603 7.8136 0.490265 10.618 1.08948 13.3262C1.13626 13.5345 1.25229 13.7207 1.4186 13.8544C1.58491 13.9882 1.79168 14.0616 2.0051 14.0626H4.97936C5.22791 14.0623 5.4662 13.9634 5.64196 13.7877C5.81771 13.6119 5.91657 13.3736 5.91686 13.1251V5.0001C5.91658 4.75154 5.81772 4.51325 5.64197 4.33749C5.46621 4.16174 5.22792 4.06288 4.97936 4.0626ZM4.66686 12.8126H2.25811C1.7481 10.3507 1.74749 7.81055 2.25631 5.34846L2.26366 5.3126H4.66686V12.8126ZM19.2512 8.53424L16.468 3.64252C16.3853 3.4975 16.2657 3.37692 16.1214 3.29298C15.9771 3.20904 15.8132 3.16474 15.6462 3.16455H10.5056C10.3374 3.16457 10.1723 3.20943 10.0273 3.29451L7.21429 4.94467V6.39389L10.5883 4.41455H15.4691L18.1249 9.08213V9.44427L17.3553 11.4962H12.3436L11.7186 12.1212V14.0344L11.774 14.2917L12.2034 15.2425C12.4226 15.7282 12.4574 16.2772 12.3014 16.7868C12.1453 17.2964 11.809 17.7317 11.3553 18.0114L8.12413 10.9376H7.18737V11.8751L10.3517 18.8225C10.4278 18.9874 10.5496 19.127 10.7026 19.2248C10.8556 19.3226 11.0334 19.3745 11.215 19.3743C11.345 19.3744 11.4735 19.3473 11.5925 19.2949C12.0086 19.1116 12.3844 18.8477 12.698 18.5184C13.0116 18.1891 13.2569 17.8009 13.4196 17.3763C13.5823 16.9517 13.6593 16.499 13.646 16.0444C13.6328 15.5899 13.5296 15.1425 13.3425 14.728L12.9686 13.8999V12.7462H17.5663C17.7586 12.7456 17.9461 12.6866 18.1042 12.5771C18.2623 12.4676 18.3834 12.3127 18.4515 12.1329L19.3144 9.83189C19.3543 9.72574 19.3747 9.61326 19.3746 9.49986V9.00166C19.3746 8.8378 19.3321 8.67676 19.2512 8.53424Z" fill="white"/>
</svg>
