<?xml version="1.0" standalone="no"?>
<!DOCTYPE svg PUBLIC "-//W3C//DTD SVG 20010904//EN"
 "http://www.w3.org/TR/2001/REC-SVG-20010904/DTD/svg10.dtd">
<svg version="1.0" xmlns="http://www.w3.org/2000/svg"
 width="720.000000pt" height="450.000000pt" viewBox="0 0 720.000000 450.000000"
 preserveAspectRatio="xMidYMid meet">

<g transform="translate(0.000000,450.000000) scale(0.100000,-0.100000)"
fill="#000000" stroke="none">
<path d="M3453 4439 c-34 -4 -79 -16 -100 -27 -21 -11 -64 -32 -96 -47 -84
-40 -153 -99 -167 -141 -7 -19 -23 -47 -36 -63 -13 -16 -31 -45 -39 -63 -22
-55 -39 -363 -22 -428 5 -19 10 -49 12 -66 2 -17 8 -41 15 -54 10 -20 10 -21
-8 -16 -42 14 -68 -18 -37 -44 13 -10 19 -10 33 3 16 15 19 15 30 -3 7 -12 8
-21 2 -25 -5 -3 -9 -17 -8 -31 2 -18 7 -24 23 -22 19 3 20 -3 22 -112 1 -63 4
-122 6 -130 3 -8 8 -40 11 -70 9 -89 53 -206 104 -278 15 -20 24 -48 25 -76 1
-24 4 -43 7 -41 3 2 7 -15 7 -37 2 -40 23 -82 23 -45 0 25 33 21 61 -6 67 -66
169 -189 169 -205 0 -23 92 -66 139 -66 49 0 102 21 83 33 -7 4 9 25 42 54 29
25 61 61 69 79 9 18 38 56 64 84 26 27 64 70 82 93 19 24 41 50 49 58 8 7 11
20 8 28 -3 8 -1 17 4 20 5 3 11 -7 13 -22 2 -16 5 4 6 44 0 39 6 84 12 100 20
49 39 166 39 236 0 57 3 67 18 67 16 1 16 1 0 11 -16 9 -18 26 -18 125 0 110
1 114 19 104 25 -13 34 -13 26 0 -4 6 -2 17 4 24 13 16 -11 42 -29 31 -19 -12
-10 8 14 30 18 17 27 20 36 11 8 -8 13 -7 20 4 15 24 12 40 -9 40 -11 0 -22
-6 -25 -12 -3 -7 -3 1 0 17 21 109 17 243 -11 355 -4 14 -11 44 -16 68 -5 24
-14 54 -21 66 -47 83 -86 139 -136 193 -50 54 -68 66 -142 94 -47 17 -94 35
-105 40 -64 28 -154 34 -272 18z m436 -414 c56 -3 68 -8 95 -35 l31 -30 1
-124 c0 -107 3 -127 21 -152 15 -21 23 -53 28 -114 4 -47 10 -104 15 -126 4
-23 3 -68 -1 -100 -4 -33 -9 -84 -11 -115 -2 -41 -6 -55 -15 -52 -7 3 -13 -2
-13 -11 0 -14 -12 -20 -32 -17 -5 0 -8 -6 -8 -15 0 -10 -6 -14 -15 -10 -8 3
-15 1 -15 -3 0 -5 4 -11 10 -13 14 -5 -10 -78 -27 -78 -8 0 -13 -11 -13 -29 0
-16 -7 -34 -15 -41 -8 -7 -15 -9 -15 -6 0 4 -7 1 -15 -7 -8 -8 -16 -32 -18
-52 -3 -25 -11 -41 -25 -49 -16 -8 -18 -15 -11 -28 8 -14 7 -16 -5 -12 -10 4
-16 -4 -21 -26 -5 -21 -16 -36 -33 -43 -15 -7 -27 -18 -28 -24 -2 -28 -5 -31
-35 -42 -26 -9 -34 -8 -43 4 -10 14 -14 13 -34 -5 -21 -19 -27 -18 -22 5 1 5
-7 2 -17 -7 -15 -14 -20 -14 -31 -2 -7 8 -11 18 -8 23 3 4 -5 7 -19 6 -18 -2
-22 1 -18 12 5 13 3 14 -12 6 -23 -13 -55 -5 -55 13 0 8 -4 14 -9 14 -5 0 -26
24 -47 53 -43 58 -54 72 -71 92 -16 17 -17 47 -1 63 10 10 10 14 0 21 -10 6
-10 10 3 21 13 11 26 8 79 -19 71 -35 84 -38 66 -16 -21 25 -5 46 34 42 19 -2
40 -1 47 4 7 4 22 3 34 -1 13 -5 26 -5 31 0 15 14 119 17 131 4 9 -8 8 -15 0
-23 -23 -23 16 -11 51 16 19 14 48 26 64 26 18 0 28 6 28 15 0 12 3 12 15 2
12 -10 15 -10 15 4 0 9 -4 16 -10 16 -5 0 -10 13 -10 29 0 16 -7 34 -15 41
-11 9 -15 10 -15 0 0 -7 -15 -11 -42 -9 -54 3 -76 14 -90 45 -14 31 -38 30
-92 -1 -35 -20 -49 -24 -69 -16 -14 5 -28 14 -31 20 -4 5 -22 7 -41 4 -21 -3
-41 -1 -50 7 -23 19 -18 -4 5 -25 22 -20 27 -39 8 -32 -7 2 -25 -4 -40 -15
-18 -12 -35 -17 -52 -12 -14 3 -41 1 -60 -6 -33 -11 -35 -14 -30 -46 3 -22 1
-34 -6 -34 -7 0 -9 -7 -6 -16 10 -27 -5 -37 -18 -12 -26 49 -42 74 -62 98 -24
29 -36 57 -26 63 4 2 2 3 -4 1 -19 -4 -51 49 -63 106 -18 82 -15 329 4 378 22
53 26 212 6 212 -11 0 -10 5 4 20 10 11 23 20 29 20 6 0 29 17 50 37 22 21 62
48 90 61 46 22 62 24 177 23 104 -2 134 1 175 18 64 25 90 28 139 18 22 -4 69
-10 104 -12z m-234 -984 c-11 -10 -36 -14 -75 -12 -40 2 -6 17 42 19 26 1 38
-2 33 -7z m-354 -104 c-10 -9 -11 -8 -5 6 3 10 9 15 12 12 3 -3 0 -11 -7 -18z"/>
<path d="M3764 3629 c-3 -5 -10 -7 -15 -4 -5 4 -9 1 -9 -5 0 -7 -8 -9 -20 -5
-14 5 -20 2 -20 -9 0 -9 -6 -16 -13 -16 -8 0 -19 -11 -25 -25 -13 -28 -16
-127 -4 -110 4 6 17 18 29 28 21 18 21 18 16 -2 -4 -16 -1 -21 15 -21 12 0 24
5 28 12 5 8 1 9 -12 5 -15 -6 -13 -2 6 14 l24 21 10 -21 c7 -16 15 -19 40 -14
17 3 36 12 43 20 6 8 17 12 23 8 8 -5 7 -12 -4 -23 -13 -16 -11 -17 27 -16 23
1 43 4 45 8 13 33 -22 62 -89 74 l-44 8 52 7 c40 6 60 4 83 -8 28 -14 31 -14
36 0 9 23 -33 64 -70 69 -75 12 -146 14 -152 5z"/>
<path d="M3245 3599 c-48 -25 -65 -45 -65 -76 0 -28 3 -28 38 -4 15 10 51 21
80 25 58 6 72 -8 17 -18 -65 -13 -135 -96 -80 -96 13 0 27 5 30 10 4 6 11 8
16 5 5 -4 14 -3 20 1 8 4 7 9 -2 15 -11 6 -11 11 -2 20 8 8 14 6 22 -9 6 -10
7 -22 3 -26 -3 -4 7 0 22 8 20 10 35 12 47 6 9 -5 33 -9 53 -8 29 1 36 5 31
17 -4 11 -1 10 15 -4 17 -15 20 -16 20 -2 0 8 4 17 9 19 15 5 0 57 -23 79 -28
27 -80 45 -153 52 -47 5 -66 2 -98 -14z m132 -105 c-3 -3 -12 -4 -19 -1 -8 3
-5 6 6 6 11 1 17 -2 13 -5z m58 -14 c18 -20 17 -20 -8 -20 -20 0 -27 5 -27 20
0 11 4 20 8 20 5 0 17 -9 27 -20z"/>
<path d="M3746 3224 c-4 -9 -4 -19 -1 -22 2 -3 7 3 11 12 4 9 4 19 1 22 -2 3
-7 -3 -11 -12z"/>
<path d="M3240 3081 c0 -5 5 -13 10 -16 6 -3 10 -2 10 4 0 5 -4 13 -10 16 -5
3 -10 2 -10 -4z"/>
<path d="M3600 2840 c0 -5 -15 -10 -34 -10 -30 0 -34 -4 -38 -29 -4 -26 -2
-29 18 -25 13 2 26 0 29 -6 3 -5 16 -10 28 -10 18 0 19 2 7 10 -12 7 -12 12
-2 22 10 10 15 10 22 -2 8 -13 10 -12 10 3 0 9 -9 26 -20 37 -11 11 -20 16
-20 10z"/>
<path d="M3647 2820 c8 -30 32 -47 43 -30 12 19 -6 50 -29 50 -14 0 -18 -5
-14 -20z"/>
<path d="M3545 2739 c-11 -17 1 -21 15 -4 8 9 8 15 2 15 -6 0 -14 -5 -17 -11z"/>
<path d="M3700 2690 c0 -5 5 -10 10 -10 6 0 10 5 10 10 0 6 -4 10 -10 10 -5 0
-10 -4 -10 -10z"/>
<path d="M3125 2645 c-16 -14 -36 -25 -44 -25 -20 0 -99 -50 -144 -92 -22 -21
-50 -38 -63 -38 -12 0 -24 -7 -28 -15 -3 -8 -13 -15 -23 -15 -10 0 -31 -9 -48
-20 -16 -11 -38 -17 -47 -14 -11 3 -28 -7 -48 -29 -27 -30 -164 -107 -189
-107 -6 0 -61 -25 -123 -55 -84 -40 -114 -60 -115 -74 -1 -10 -15 -52 -32 -93
-58 -140 -91 -267 -102 -397 -9 -102 -16 -135 -40 -185 -16 -34 -29 -77 -29
-97 0 -20 -11 -61 -25 -90 -13 -30 -27 -81 -30 -114 -7 -63 -41 -208 -56 -237
-5 -10 -11 -52 -13 -95 -2 -59 1 -88 15 -120 10 -24 20 -43 22 -43 2 0 3 33 3
74 -1 88 14 111 96 146 85 36 208 47 327 27 115 -19 231 -63 279 -106 37 -34
37 -37 17 -110 -8 -30 -12 -58 -9 -63 11 -18 22 -6 29 29 4 21 10 40 13 43 20
15 52 92 52 124 0 31 4 37 28 42 15 4 29 10 32 14 5 7 257 23 335 21 22 -1
153 -7 290 -15 147 -8 275 -10 310 -6 97 13 177 12 173 -2 -7 -21 -215 -36
-373 -27 -187 11 -303 10 -255 -1 49 -12 481 -17 564 -7 55 7 67 6 64 -4 -8
-24 -80 -33 -270 -33 -180 -1 -184 -1 -120 -14 53 -10 99 -10 217 -1 83 6 153
13 158 16 4 2 14 -2 22 -11 14 -13 10 -16 -32 -22 -27 -4 -70 -8 -96 -8 -35 0
-43 -2 -31 -9 16 -9 116 -4 197 9 24 4 37 3 37 -5 0 -6 -12 -11 -27 -11 -23
-1 -25 -2 -11 -10 11 -7 26 -7 43 0 14 5 43 10 64 10 34 0 269 55 280 66 12
12 35 91 60 206 24 114 32 134 76 200 27 40 48 79 47 86 -2 6 5 12 15 12 17 1
17 1 1 14 -24 18 -23 36 2 36 12 0 20 -7 20 -16 0 -12 14 -4 45 25 49 46 49
45 76 31 30 -16 23 -50 -23 -110 l-41 -55 38 33 c21 19 71 49 112 68 85 38
113 35 113 -14 0 -30 -27 -61 -90 -102 -32 -21 -110 -97 -110 -108 0 -2 19 12
43 31 24 20 74 50 111 69 74 36 98 33 104 -15 3 -21 -8 -33 -65 -74 -77 -54
-182 -158 -221 -218 -18 -29 0 -14 68 53 99 100 127 112 141 60 5 -18 1 -37
-12 -60 l-20 -33 29 32 c48 55 113 78 222 78 81 0 102 -4 144 -25 58 -29 84
-61 92 -112 7 -43 -2 -88 -17 -88 -6 0 -8 9 -4 19 3 11 2 22 -2 24 -4 3 -9 -6
-9 -20 -1 -13 -10 -33 -20 -44 -16 -17 -16 -20 -1 -37 11 -12 13 -22 7 -32 -8
-12 -10 -11 -11 5 0 12 -3 15 -6 7 -3 -8 4 -22 15 -32 20 -19 20 -19 27 33 4
29 17 68 28 89 20 34 21 41 10 125 -7 48 -23 117 -38 153 -23 59 -25 70 -14
112 13 58 1 125 -37 201 -36 70 -53 158 -47 242 8 108 -48 303 -130 454 -50
93 -67 116 -94 127 -18 8 -40 14 -49 14 -9 0 -38 11 -66 25 -27 14 -59 25 -70
25 -27 0 -166 48 -204 71 -17 10 -38 27 -48 38 -10 11 -32 23 -50 27 -43 9
-99 39 -138 73 -35 30 -125 79 -155 84 -10 2 -33 11 -51 21 l-34 17 23 -30
c22 -29 22 -31 5 -75 -40 -103 -133 -219 -224 -277 -59 -37 -181 -76 -264 -85
-136 -13 -300 48 -404 151 -69 69 -132 168 -141 220 -5 30 -1 41 22 66 35 36
13 39 -30 4z m1068 -1112 c-7 -2 -19 -2 -25 0 -7 3 -2 5 12 5 14 0 19 -2 13
-5z m-83 -28 c0 -8 -4 -15 -10 -15 -5 0 -7 7 -4 15 4 8 8 15 10 15 2 0 4 -7 4
-15z m0 -39 c0 -2 -7 -7 -16 -10 -8 -3 -12 -2 -9 4 6 10 25 14 25 6z m-715
-31 c184 -19 262 -19 325 2 44 14 60 15 109 5 31 -7 69 -12 84 -12 14 0 29 -4
32 -10 8 -13 -60 -13 -123 0 -39 9 -58 8 -94 -4 -63 -22 -137 -22 -333 -3
-199 20 -365 21 -540 6 -112 -10 -148 -9 -134 5 8 8 252 23 394 24 77 1 203
-5 280 -13z m1194 6 c13 -8 8 -31 -7 -31 -17 1 -34 19 -28 29 9 13 16 14 35 2z
m-1112 -48 c150 -15 178 -15 215 -3 70 22 248 14 248 -12 0 -7 -32 -8 -104 -3
-67 4 -106 3 -110 -3 -11 -18 -111 -25 -198 -13 -184 24 -437 33 -616 20 -133
-10 -175 -10 -184 -1 -9 9 -9 12 2 13 8 1 67 7 130 14 140 16 377 12 617 -12z
m-122 -34 c296 -22 328 -23 369 -5 29 12 56 15 100 11 103 -10 127 -15 120
-27 -4 -7 -37 -9 -93 -6 -61 4 -99 1 -131 -10 -47 -15 -103 -14 -360 8 -130
11 -349 14 -440 6 -33 -4 -87 -8 -120 -11 -50 -5 -60 -3 -60 10 0 8 8 15 18
16 9 0 82 6 162 13 148 13 204 12 435 -5z m735 -10 c0 -5 -4 -9 -10 -9 -5 0
-10 7 -10 16 0 8 5 12 10 9 6 -3 10 -10 10 -16z m-60 -9 c0 -5 -4 -10 -9 -10
-6 0 -13 5 -16 10 -3 6 1 10 9 10 9 0 16 -4 16 -10z m-585 -32 c134 -14 257
-13 285 2 32 17 220 3 213 -16 -4 -11 -27 -14 -107 -12 -55 1 -125 -3 -155 -9
-42 -8 -90 -7 -200 3 -182 18 -425 22 -600 10 -113 -8 -133 -7 -129 5 11 35
434 45 693 17z m631 -18 c1 -16 -3 -27 -7 -24 -14 8 -9 54 5 54 1 0 1 -13 2
-30z m34 20 c0 -5 -4 -10 -10 -10 -5 0 -10 5 -10 10 0 6 5 10 10 10 6 0 10 -4
10 -10z m34 -5 c3 -8 1 -15 -4 -15 -6 0 -10 7 -10 15 0 8 2 15 4 15 2 0 6 -7
10 -15z m46 5 c0 -5 -2 -10 -4 -10 -3 0 -8 5 -11 10 -3 6 -1 10 4 10 6 0 11
-4 11 -10z m40 0 c0 -5 -4 -10 -10 -10 -5 0 -10 5 -10 10 0 6 5 10 10 10 6 0
10 -4 10 -10z m-794 -46 c170 -13 221 -14 260 -4 56 14 72 15 172 12 58 -2 72
-5 72 -18 0 -13 -14 -15 -92 -13 -51 2 -118 -3 -148 -9 -42 -10 -86 -10 -185
-2 -310 25 -378 27 -506 19 -233 -15 -242 -15 -246 -2 -4 12 40 18 227 32 116
9 142 8 446 -15z m531 -6 c-3 -8 -6 -5 -6 6 -1 11 2 17 5 13 3 -3 4 -12 1 -19z
m198 1 c-10 -15 -25 -10 -19 6 4 8 10 12 15 9 5 -3 7 -10 4 -15z m-138 -11
c-3 -8 -6 -5 -6 6 -1 11 2 17 5 13 3 -3 4 -12 1 -19z m-608 -25 c201 -13 262
-14 297 -5 62 17 237 16 232 0 -3 -9 -41 -15 -119 -19 -63 -3 -122 -9 -131
-13 -10 -5 -143 0 -295 9 -239 15 -302 16 -445 6 -92 -7 -172 -10 -178 -6 -26
16 -1 23 118 32 196 15 248 15 521 -4z m548 -15 c-3 -7 -5 -2 -5 12 0 14 2 19
5 13 2 -7 2 -19 0 -25z m140 19 c0 -7 -9 -13 -19 -13 -18 0 -18 1 -2 13 10 7
18 13 19 13 1 0 2 -6 2 -13z m-640 -48 c170 -9 243 -9 270 -1 54 15 213 4 213
-16 0 -12 -15 -14 -82 -11 -46 2 -109 -1 -141 -5 -35 -5 -148 -3 -290 5 -269
16 -311 17 -508 5 -107 -6 -148 -6 -153 3 -4 6 -6 11 -4 12 20 7 349 27 398
24 36 -2 170 -9 297 -16z m571 -27 c2 -7 -2 -10 -12 -6 -9 3 -16 11 -16 16 0
13 23 5 28 -10z m-600 -17 c160 -10 246 -12 275 -5 23 5 84 10 135 10 75 0 92
-3 92 -15 0 -12 -17 -15 -92 -15 -51 0 -112 -5 -135 -10 -30 -7 -112 -5 -270
5 -163 11 -291 14 -450 9 -150 -5 -223 -4 -223 3 0 11 194 29 345 31 50 1 195
-5 323 -13z m719 -7 c-3 -8 -6 -5 -6 6 -1 11 2 17 5 13 3 -3 4 -12 1 -19z m86
8 c4 -10 1 -13 -8 -9 -8 3 -12 9 -9 14 7 12 11 11 17 -5z m-838 -42 c205 -13
287 -14 340 -6 39 6 98 11 133 12 50 1 62 -2 62 -14 0 -13 -12 -16 -56 -16
-30 0 -87 -5 -127 -11 -55 -9 -134 -7 -358 6 -224 13 -305 15 -375 6 -98 -12
-204 -14 -228 -5 -38 14 -10 24 72 25 48 1 114 5 147 9 94 11 104 11 390 -6z
m765 -14 c0 -5 -2 -10 -4 -10 -3 0 -8 5 -11 10 -3 6 -1 10 4 10 6 0 11 -4 11
-10z m50 0 c0 -5 -2 -10 -4 -10 -3 0 -8 5 -11 10 -3 6 -1 10 4 10 6 0 11 -4
11 -10z m-492 -32 c129 2 212 -1 212 -7 0 -25 -245 -34 -530 -20 -140 7 -268
13 -285 12 -16 -1 -104 -5 -194 -9 -138 -6 -163 -5 -159 7 4 11 32 14 127 15
67 1 125 5 129 9 4 4 115 3 247 -1 132 -5 336 -8 453 -6z m-278 -44 c186 -11
265 -12 302 -5 27 6 80 11 118 11 56 0 70 -3 70 -15 0 -12 -13 -15 -57 -15
-32 0 -87 -5 -123 -10 -46 -7 -144 -5 -330 6 -332 20 -298 20 -413 6 -97 -12
-233 -7 -243 9 -6 10 -7 10 111 10 50 0 110 4 135 8 70 13 159 12 430 -5z m11
-45 c180 -8 273 -8 348 0 128 14 131 14 131 -3 0 -31 -230 -41 -560 -23 -175
10 -292 11 -345 6 -87 -10 -242 -2 -251 12 -3 5 45 9 108 9 110 1 188 7 198
17 3 3 32 2 65 -1 33 -3 171 -11 306 -17z"/>
<path d="M3217 2623 c-4 -6 -2 -44 3 -85 6 -40 13 -85 15 -100 2 -15 8 -35 14
-45 8 -13 9 12 6 91 -2 60 -8 112 -13 115 -5 3 -11 13 -14 21 -3 9 -7 10 -11
3z"/>
<path d="M4451 964 c0 -11 3 -14 6 -6 3 7 2 16 -1 19 -3 4 -6 -2 -5 -13z"/>
<path d="M2983 893 c9 -2 23 -2 30 0 6 3 -1 5 -18 5 -16 0 -22 -2 -12 -5z"/>
<path d="M2795 799 c-11 -17 -2 -18 19 -3 17 12 17 14 4 14 -9 0 -20 -5 -23
-11z"/>
<path d="M3713 793 c9 -2 25 -2 35 0 9 3 1 5 -18 5 -19 0 -27 -2 -17 -5z"/>
<path d="M5290 698 c0 -7 5 -20 10 -28 8 -12 10 -9 10 13 0 15 -4 27 -10 27
-5 0 -10 -6 -10 -12z"/>
<path d="M5284 653 c9 -17 -23 -153 -37 -153 -8 0 -8 -3 1 -8 13 -9 6 -42 -9
-42 -5 0 -9 -11 -9 -25 0 -14 -4 -33 -9 -43 -4 -9 -15 -33 -23 -52 -9 -19 -23
-51 -31 -70 -10 -23 -15 -55 -12 -90 3 -40 0 -59 -12 -72 -14 -16 -18 -29 -22
-72 -1 -5 -4 -6 -8 -3 -3 4 -12 2 -19 -3 -17 -15 -92 16 -129 54 -35 35 -91
60 -101 44 -3 -5 -13 -6 -23 -2 -9 3 -23 8 -31 9 -84 12 -118 19 -134 27 -13
7 -21 6 -26 -2 -5 -8 -18 -10 -34 -6 -29 7 -36 -10 -14 -32 10 -10 10 -15 -2
-22 -17 -11 -37 -13 -27 -4 3 3 -3 15 -13 27 -11 11 -23 17 -27 13 -5 -4 1
-14 11 -22 25 -18 12 -32 -14 -16 -26 16 -33 15 -27 -2 6 -16 -26 -10 -79 16
-16 7 -42 13 -59 12 -16 -2 -37 0 -45 3 -32 12 -80 13 -80 2 0 -7 -7 -8 -17
-4 -10 4 -30 7 -45 6 -15 -1 -30 3 -33 9 -4 6 -11 8 -16 4 -17 -10 -179 32
-179 47 0 4 -19 10 -42 14 -41 7 -73 27 -62 38 3 3 -3 3 -14 1 -10 -3 -26 2
-35 10 -8 9 -21 16 -27 16 -6 0 -24 10 -39 21 -16 12 -34 18 -40 15 -6 -4 -11
-2 -11 3 0 6 -6 11 -13 11 -7 0 -23 9 -35 20 -12 12 -22 18 -22 15 0 -3 -15 2
-32 11 -32 16 -60 43 -79 74 -7 13 -10 13 -18 1 -8 -13 -15 -12 -50 5 -23 10
-41 25 -41 32 0 9 -7 11 -20 7 -11 -4 -20 -2 -20 4 0 6 -7 8 -16 4 -10 -4 -17
2 -21 16 -4 15 -12 21 -27 20 -11 -2 -31 3 -43 9 -13 7 -23 10 -23 8 0 -3 -12
-1 -27 5 -16 6 -48 13 -73 16 -25 3 -54 10 -64 15 -15 8 -21 8 -24 -1 -2 -6
-16 -11 -30 -12 -21 0 -9 -9 53 -40 44 -22 82 -44 83 -49 2 -6 8 -10 13 -10
16 0 61 -49 54 -59 -5 -9 40 -24 75 -26 30 -2 106 -27 150 -51 45 -24 53 -29
122 -71 21 -13 43 -23 50 -23 16 0 68 -47 68 -61 0 -6 5 -7 10 -4 6 3 10 1 10
-4 0 -6 -6 -11 -14 -11 -9 0 -12 -7 -9 -21 4 -14 9 -17 16 -10 7 7 16 4 29
-11 21 -25 23 -39 6 -56 -9 -9 -9 -12 0 -12 7 0 14 6 16 12 12 40 19 52 23 41
2 -7 11 -9 20 -6 13 5 15 1 11 -20 -3 -16 -1 -27 6 -27 6 0 -2 -9 -19 -20 -30
-20 -30 -20 659 -20 626 0 691 1 707 16 39 36 80 174 120 404 28 164 35 227
27 235 -8 7 -9 6 -4 -2z"/>
<path d="M3520 453 c0 -5 5 -15 10 -23 8 -12 10 -11 10 8 0 12 -4 22 -10 22
-5 0 -10 -3 -10 -7z"/>
<path d="M3620 408 c0 -12 7 -18 23 -17 15 0 17 2 7 6 -8 3 -18 11 -22 17 -5
7 -8 4 -8 -6z"/>
<path d="M3590 379 c17 -17 60 -23 60 -8 0 5 -6 9 -12 9 -7 0 -24 3 -38 7 -22
6 -23 5 -10 -8z"/>
<path d="M3700 375 c0 -13 42 -35 65 -35 8 0 15 -6 15 -12 0 -10 3 -9 9 1 7
10 13 11 30 2 12 -7 26 -9 31 -6 5 3 25 -4 44 -14 20 -11 56 -22 80 -24 25 -2
51 -9 59 -15 7 -6 18 -7 26 -3 8 5 25 3 40 -4 28 -14 121 -45 134 -45 5 0 5 4
2 10 -3 5 3 10 14 10 10 0 22 6 25 13 5 9 7 9 12 -1 3 -6 10 -10 15 -6 17 10
9 20 -26 34 -19 7 -37 20 -40 28 -4 11 -8 12 -19 2 -11 -8 -20 -9 -35 0 -12 6
-21 8 -21 4 0 -3 -7 -1 -15 6 -8 7 -33 14 -55 15 -22 1 -46 8 -55 15 -8 7 -15
9 -15 4 0 -5 -5 -2 -10 6 -8 13 -10 12 -10 -2 0 -24 -12 -22 -29 4 l-14 22
-18 -23 c-16 -20 -20 -21 -25 -7 -3 9 -14 16 -24 16 -11 0 -22 5 -25 10 -12
20 -22 10 -17 -17 4 -27 4 -27 -12 -8 -13 17 -17 18 -25 5 -9 -13 -12 -12 -25
5 -14 17 -17 18 -26 5 -5 -8 -10 -10 -10 -4 0 7 -11 14 -25 16 -15 3 -25 1
-25 -7z"/>
<path d="M3640 340 c0 -5 4 -10 9 -10 6 0 13 5 16 10 3 6 -1 10 -9 10 -9 0
-16 -4 -16 -10z"/>
<path d="M3725 304 c9 -9 19 -13 23 -10 3 4 0 11 -8 16 -24 15 -33 11 -15 -6z"/>
<path d="M2046 275 c-3 -8 -1 -15 4 -15 6 0 10 7 10 15 0 8 -2 15 -4 15 -2 0
-6 -7 -10 -15z"/>
<path d="M2050 234 c0 -9 -5 -12 -12 -8 -8 5 -9 0 -4 -17 5 -13 8 -33 8 -44 1
-43 21 -151 30 -160 7 -7 9 4 5 33 -4 30 -1 44 9 50 11 6 12 18 5 55 -6 32 -5
48 3 51 7 3 4 9 -6 16 -10 6 -18 18 -18 25 0 8 -4 15 -10 15 -5 0 -10 -7 -10
-16z"/>
<path d="M3170 89 c0 -5 5 -7 10 -4 6 3 10 8 10 11 0 2 -4 4 -10 4 -5 0 -10
-5 -10 -11z"/>
<path d="M2840 50 c0 -5 5 -10 10 -10 6 0 10 5 10 10 0 6 -4 10 -10 10 -5 0
-10 -4 -10 -10z"/>
<path d="M2804 19 c-3 -6 -20 -8 -38 -5 -17 3 -38 1 -46 -4 -11 -7 -2 -10 31
-10 29 0 51 6 59 15 7 8 10 15 7 15 -3 0 -9 -5 -13 -11z"/>
<path d="M2635 10 l-40 -7 47 -2 c26 0 50 4 53 9 7 11 1 11 -60 0z"/>
</g>
</svg>
