<svg width="10" height="11" viewBox="0 0 10 11" fill="none" xmlns="http://www.w3.org/2000/svg">
<path d="M5.00187 0.875C5.4115 0.874942 5.80635 1.02802 6.10891 1.30417C6.41146 1.58032 6.59985 1.9596 6.63709 2.36754H9.18097C9.29442 2.36757 9.40362 2.41067 9.48652 2.48812C9.56941 2.56557 9.61982 2.6716 9.62755 2.78478C9.63529 2.89796 9.59977 3.00986 9.52818 3.09787C9.45658 3.18587 9.35425 3.24342 9.24187 3.25888L9.18097 3.26306H8.83291L8.07649 9.81828C8.04281 10.1093 7.90333 10.3777 7.6846 10.5726C7.46587 10.7674 7.18315 10.875 6.89022 10.875H3.11351C2.82058 10.875 2.53786 10.7674 2.31913 10.5726C2.1004 10.3777 1.96093 10.1093 1.92724 9.81828L1.17022 3.26306H0.822761C0.71456 3.26306 0.61002 3.22387 0.528474 3.15275C0.446929 3.08163 0.393894 2.98339 0.379179 2.87619L0.375 2.8153C0.375005 2.7071 0.41419 2.60256 0.485309 2.52101C0.556428 2.43947 0.654669 2.38643 0.761866 2.37172L0.822761 2.36754H3.36664C3.40388 1.9596 3.59227 1.58032 3.89482 1.30417C4.19738 1.02802 4.59223 0.874942 5.00187 0.875V0.875ZM4.10634 4.60634C3.96007 4.60634 3.83769 4.69888 3.81261 4.82067L3.80784 4.86784V8.52455L3.81261 8.57112C3.83769 8.69291 3.96007 8.78545 4.10634 8.78545C4.25261 8.78545 4.375 8.69291 4.40007 8.57112L4.40485 8.52396V4.86843L4.40007 4.82067C4.375 4.69948 4.25261 4.60634 4.10634 4.60634ZM5.89739 4.60634C5.75112 4.60634 5.62873 4.69888 5.60366 4.82067L5.59888 4.86784V8.52455L5.60366 8.57112C5.62873 8.69291 5.75112 8.78545 5.89739 8.78545C6.04366 8.78545 6.16604 8.69291 6.19112 8.57112L6.1959 8.52396V4.86843L6.19112 4.82067C6.16604 4.69948 6.04366 4.60694 5.89739 4.60694V4.60634ZM5.00187 1.77052C4.64067 1.77052 4.33918 2.02724 4.27052 2.36754H5.73321C5.66396 2.02724 5.36306 1.77052 5.00187 1.77052V1.77052Z" fill="#C93434"/>
</svg>
