<svg width="18" height="18" viewBox="0 0 18 18" fill="none" xmlns="http://www.w3.org/2000/svg">
<path d="M8 14.3333V12.5417H9.79167V14.3333H8ZM8.89583 0.125C11.3542 0.125 13.4514 0.993056 15.1875 2.72917C16.9236 4.46528 17.7917 6.55556 17.7917 9C17.7917 11.4444 16.9236 13.5347 15.1875 15.2708C13.4514 17.0069 11.3542 17.875 8.89583 17.875C6.4375 17.875 4.34028 17.0069 2.60417 15.2708C0.868055 13.5347 0 11.4444 0 9C0 6.55556 0.868055 4.46528 2.60417 2.72917C4.34028 0.993056 6.4375 0.125 8.89583 0.125ZM8.89583 16.125C10.8542 16.125 12.5278 15.4306 13.9167 14.0417C15.3056 12.6528 16 10.9722 16 9C16 7.02778 15.3056 5.34722 13.9167 3.95833C12.5278 2.56944 10.8542 1.875 8.89583 1.875C6.9375 1.875 5.26389 2.56944 3.875 3.95833C2.48611 5.34722 1.79167 7.02778 1.79167 9C1.79167 10.9722 2.48611 12.6528 3.875 14.0417C5.26389 15.4306 6.9375 16.125 8.89583 16.125ZM8.89583 3.66667C9.88194 3.66667 10.7222 4.01389 11.4167 4.70833C12.1111 5.40278 12.4583 6.23611 12.4583 7.20833C12.4583 7.70833 12.3194 8.15972 12.0417 8.5625C11.7639 8.96528 11.4583 9.28472 11.125 9.52083C10.7917 9.75694 10.4861 10.0625 10.2083 10.4375C9.93056 10.8125 9.79167 11.2222 9.79167 11.6667H8C8 11.0278 8.13889 10.4792 8.41667 10.0208C8.69444 9.5625 9 9.22917 9.33333 9.02083C9.66667 8.8125 9.97222 8.55556 10.25 8.25C10.5278 7.94444 10.6667 7.59722 10.6667 7.20833C10.6667 6.73611 10.4931 6.32639 10.1458 5.97917C9.79861 5.63194 9.38194 5.45833 8.89583 5.45833C8.40972 5.45833 7.99305 5.63194 7.64583 5.97917C7.29861 6.32639 7.125 6.73611 7.125 7.20833H5.33333C5.33333 6.23611 5.68056 5.40278 6.375 4.70833C7.06944 4.01389 7.90972 3.66667 8.89583 3.66667Z" fill="#999999"/>
</svg>
