<svg width="24" height="24" viewBox="0 0 24 24" fill="none" xmlns="http://www.w3.org/2000/svg">
<path d="M4.70594 0.00610352C2.12073 0.00610352 0.00488281 2.1219 0.00488281 4.70715V19.2953C0.00488281 21.8805 2.12068 23.9956 4.70594 23.9956H19.2942C21.8794 23.9956 23.9944 21.8806 23.9944 19.2953V4.70715C23.9944 2.12194 21.8794 0.00610352 19.2942 0.00610352H4.70594ZM5.88833 3.96486C7.12788 3.96486 7.89139 4.7786 7.91496 5.84826C7.91496 6.8943 7.12783 7.73091 5.86435 7.73091H5.84109C4.62513 7.73091 3.8392 6.89434 3.8392 5.84826C3.8392 4.77862 4.64892 3.96486 5.8883 3.96486H5.88833ZM16.5703 8.96429C18.9542 8.96429 20.7412 10.5224 20.7412 13.8708V20.1215H17.1184V14.2898C17.1184 12.8244 16.594 11.8246 15.2829 11.8246C14.282 11.8246 13.6854 12.4985 13.4235 13.1495C13.3278 13.3824 13.3043 13.7076 13.3043 14.0334V20.1215H9.68141C9.68141 20.1215 9.72896 10.2428 9.68141 9.21994H13.305V10.7637C13.7865 10.0209 14.6476 8.96427 16.5703 8.96427V8.96429ZM4.0529 9.22073H7.67578V20.1216H4.0529V9.22073Z" fill="#0077B5"/>
</svg>
