<svg width="21" height="20" viewBox="0 0 21 20" fill="none" xmlns="http://www.w3.org/2000/svg">
<g clip-path="url(#clip0_140_14)">
<path d="M4.7549 6.49833V20H0.259063V6.49833H4.7549ZM5.04073 2.32999L5.0424 2.41166C5.0424 3.03583 4.7774 3.59749 4.35406 3.99083L4.3524 3.99166C4.10302 4.21974 3.81089 4.3961 3.49292 4.51053C3.17494 4.62496 2.83742 4.6752 2.4999 4.65833H2.50573H2.47823C2.14846 4.67397 1.81893 4.62291 1.50936 4.50822C1.19979 4.39353 0.916536 4.21755 0.676563 3.99083L0.677396 3.99166C0.454568 3.77667 0.279068 3.51753 0.16212 3.23083C0.0451715 2.94413 -0.0106488 2.63617 -0.00177068 2.32666V2.32999L-0.00260401 2.27249C-0.00260401 1.63749 0.267396 1.06583 0.698229 0.664994L0.699896 0.664161C1.20035 0.208375 1.86121 -0.0301959 2.5374 0.000827702H2.5324C2.86369 -0.0153647 3.19488 0.0349094 3.50645 0.148688C3.81802 0.262467 4.10366 0.43745 4.34656 0.663328L4.3449 0.661661C4.56523 0.873464 4.74045 1.12764 4.86003 1.4089C4.97961 1.69016 5.04108 1.9927 5.04073 2.29833V2.33333V2.33166V2.32999ZM20.9257 12.2633V20H16.4441V12.7792C16.4896 11.9868 16.2935 11.1993 15.8816 10.5208L15.8916 10.5383C15.6978 10.2654 15.4365 10.0473 15.1333 9.90531C14.8301 9.76335 14.4953 9.70238 14.1616 9.72833H14.1682C13.6467 9.70971 13.1356 9.87752 12.7266 10.2017L12.7316 10.1983C12.3539 10.5027 12.0583 10.8966 11.8716 11.3442L11.8649 11.3633C11.7508 11.7215 11.7003 12.0969 11.7157 12.4725V12.4667V20.0017H7.23406C7.2524 16.3778 7.26156 13.4394 7.26156 11.1867C7.26156 8.93388 7.25712 7.58972 7.24823 7.15416L7.2349 6.5H11.7166V8.46166H11.6891C11.8674 8.17416 12.0516 7.92499 12.2541 7.69166L12.2474 7.69916C12.4816 7.44166 12.7332 7.20916 13.0041 7.00083L13.0174 6.99083C13.3642 6.72475 13.7576 6.52579 14.1774 6.40416L14.2024 6.39833C14.6888 6.2564 15.1932 6.18512 15.6999 6.18666H15.7657H15.7624C16.461 6.15724 17.1576 6.27994 17.8041 6.54627C18.4505 6.8126 19.0314 7.21621 19.5066 7.72916L19.5091 7.7325C20.4546 8.76361 20.9274 10.2736 20.9274 12.2625L20.9257 12.2633Z" fill="white"/>
</g>
<defs>
<clipPath id="clip0_140_14">
<rect width="20.8333" height="20" fill="white"/>
</clipPath>
</defs>
</svg>
