<svg width="32" height="41" viewBox="0 0 32 41" fill="none" xmlns="http://www.w3.org/2000/svg">
<path d="M16.0893 40.75L4.03787 26.5371C3.87042 26.3237 3.7047 26.109 3.54073 25.8929C1.48213 23.1811 0.370027 19.8689 0.375017 16.4643C0.375017 12.2966 2.03062 8.29961 4.97763 5.35261C7.92463 2.40561 11.9216 0.75 16.0893 0.75C20.257 0.75 24.254 2.40561 27.201 5.35261C30.148 8.29961 31.8036 12.2966 31.8036 16.4643C31.8086 19.8673 30.697 23.1781 28.6393 25.8886L28.6379 25.8929C28.6379 25.8929 28.2093 26.4557 28.145 26.5314L16.0893 40.75ZM5.82073 24.1714C5.82359 24.1714 6.15502 24.6114 6.23073 24.7057L16.0893 36.3329L25.9607 24.69C26.0236 24.6114 26.3579 24.1686 26.3593 24.1671C28.0409 21.9516 28.9498 19.2458 28.9465 16.4643C28.9465 13.0544 27.5919 9.78409 25.1807 7.37291C22.7695 4.96173 19.4992 3.60714 16.0893 3.60714C12.6794 3.60714 9.40911 4.96173 6.99793 7.37291C4.58675 9.78409 3.23216 13.0544 3.23216 16.4643C3.22916 19.2475 4.13898 21.9549 5.82216 24.1714H5.82073Z" fill="#263238" fill-opacity="0.5"/>
<path d="M23.232 23.6071H20.3749V12.1786H11.8034V23.6071H8.94629V12.1786C8.94705 11.421 9.24831 10.6947 9.78396 10.1591C10.3196 9.62343 11.0459 9.32217 11.8034 9.32141H20.3749C21.1324 9.32217 21.8587 9.62343 22.3943 10.1591C22.93 10.6947 23.2312 11.421 23.232 12.1786V23.6071Z" fill="#263238" fill-opacity="0.5"/>
<path d="M14.6606 20.75H17.5178V23.6071H14.6606V20.75Z" fill="#263238" fill-opacity="0.5"/>
<path d="M14.6606 15.0358H17.5178V17.8929H14.6606V15.0358Z" fill="#263238" fill-opacity="0.5"/>
</svg>
