<svg width="22" height="18" viewBox="0 0 22 18" fill="none" xmlns="http://www.w3.org/2000/svg">
<g clip-path="url(#clip0_299_43)">
<path d="M16.416 4.24799L21.384 9.03598L16.416 13.788V10.602H8.982V7.43398H16.416V4.24799ZM13.428 13.464L15.336 15.39C13.464 17.142 11.436 18.0179 9.252 18.0179C6.648 18.0179 4.455 17.1569 2.673 15.435C0.891 13.713 0 11.562 0 8.98198C0 7.36198 0.408 5.86199 1.224 4.48199C2.04 3.102 3.141 2.013 4.527 1.215C5.913 0.417004 7.416 0.0180054 9.036 0.0180054C11.244 0.0180054 13.338 0.906003 15.318 2.682L13.428 4.58999C12.06 3.34199 10.602 2.718 9.054 2.718C7.266 2.718 5.757 3.34199 4.527 4.58999C3.297 5.83799 2.682 7.36198 2.682 9.16198C2.682 10.842 3.315 12.288 4.581 13.5C5.847 14.712 7.332 15.318 9.036 15.318C10.608 15.318 12.072 14.7 13.428 13.464Z" fill="#999999"/>
</g>
<defs>
<clipPath id="clip0_299_43">
<rect width="21.384" height="18" fill="white"/>
</clipPath>
</defs>
</svg>
