<svg width="20" height="20" viewBox="0 0 20 20" fill="none" xmlns="http://www.w3.org/2000/svg">
<path d="M6.8891 12.2334C6.73577 12.2334 6.63243 12.2484 6.5791 12.2634V13.2451C6.64243 13.2601 6.7216 13.2642 6.83077 13.2642C7.22993 13.2642 7.47577 13.0626 7.47577 12.7217C7.47577 12.4167 7.2641 12.2334 6.8891 12.2334ZM9.79494 12.2434C9.62827 12.2434 9.51994 12.2584 9.45577 12.2734V14.4484C9.51994 14.4634 9.62327 14.4634 9.7166 14.4634C10.3974 14.4684 10.8408 14.0934 10.8408 13.3001C10.8458 12.6084 10.4416 12.2434 9.79494 12.2434Z" fill="white"/>
<path d="M11.6663 1.66675H4.99967C4.55765 1.66675 4.13372 1.84234 3.82116 2.1549C3.5086 2.46746 3.33301 2.89139 3.33301 3.33341V16.6667C3.33301 17.1088 3.5086 17.5327 3.82116 17.8453C4.13372 18.1578 4.55765 18.3334 4.99967 18.3334H14.9997C15.4417 18.3334 15.8656 18.1578 16.1782 17.8453C16.4907 17.5327 16.6663 17.1088 16.6663 16.6667V6.66675L11.6663 1.66675ZM7.91467 13.4917C7.65717 13.7334 7.27717 13.8417 6.83467 13.8417C6.74887 13.8427 6.66311 13.8377 6.57801 13.8267V15.0151H5.83301V11.7351C6.16922 11.6849 6.50894 11.6621 6.84884 11.6667C7.31301 11.6667 7.64301 11.7551 7.86551 11.9326C8.07717 12.1009 8.22051 12.3767 8.22051 12.7017C8.21967 13.0284 8.11134 13.3042 7.91467 13.4917ZM11.0872 14.6209C10.7372 14.9117 10.2047 15.0501 9.55384 15.0501C9.16384 15.0501 8.88801 15.0251 8.70051 15.0001V11.7359C9.03684 11.6868 9.37646 11.6637 9.71634 11.6667C10.3472 11.6667 10.7572 11.7801 11.0772 12.0217C11.423 12.2784 11.6397 12.6876 11.6397 13.2751C11.6397 13.9109 11.4072 14.3501 11.0872 14.6209ZM14.1663 12.3084H12.8897V13.0676H14.083V13.6792H12.8897V15.0159H12.1347V11.6917H14.1663V12.3084ZM11.6663 7.50008H10.833V3.33341L14.9997 7.50008H11.6663Z" fill="white"/>
</svg>
