<svg width="16" height="16" viewBox="0 0 16 16" fill="none" xmlns="http://www.w3.org/2000/svg">
<path d="M7.11111 12.7407V11.1481H8.7037V12.7407H7.11111ZM7.90741 0.111084C10.0926 0.111084 11.9568 0.882689 13.5 2.4259C15.0432 3.96911 15.8148 5.82713 15.8148 7.99997C15.8148 10.1728 15.0432 12.0308 13.5 13.574C11.9568 15.1173 10.0926 15.8889 7.90741 15.8889C5.72222 15.8889 3.85802 15.1173 2.31481 13.574C0.771605 12.0308 0 10.1728 0 7.99997C0 5.82713 0.771605 3.96911 2.31481 2.4259C3.85802 0.882689 5.72222 0.111084 7.90741 0.111084ZM7.90741 14.3333C9.64815 14.3333 11.1358 13.716 12.3704 12.4815C13.6049 11.2469 14.2222 9.75306 14.2222 7.99997C14.2222 6.24689 13.6049 4.75306 12.3704 3.51849C11.1358 2.28392 9.64815 1.66664 7.90741 1.66664C6.16667 1.66664 4.67901 2.28392 3.44444 3.51849C2.20988 4.75306 1.59259 6.24689 1.59259 7.99997C1.59259 9.75306 2.20988 11.2469 3.44444 12.4815C4.67901 13.716 6.16667 14.3333 7.90741 14.3333ZM7.90741 3.25923C8.78395 3.25923 9.53086 3.56787 10.1481 4.18516C10.7654 4.80244 11.0741 5.54318 11.0741 6.40738C11.0741 6.85182 10.9506 7.25306 10.7037 7.61108C10.4568 7.96911 10.1852 8.25306 9.88889 8.46294C9.59259 8.67281 9.32099 8.94442 9.07407 9.27775C8.82716 9.61108 8.7037 9.97528 8.7037 10.3703H7.11111C7.11111 9.80244 7.23457 9.31479 7.48148 8.90738C7.7284 8.49997 8 8.20368 8.2963 8.01849C8.59259 7.83331 8.8642 7.60491 9.11111 7.33331C9.35802 7.0617 9.48148 6.75306 9.48148 6.40738C9.48148 5.98763 9.32716 5.62343 9.01852 5.31479C8.70988 5.00615 8.33951 4.85182 7.90741 4.85182C7.47531 4.85182 7.10494 5.00615 6.7963 5.31479C6.48765 5.62343 6.33333 5.98763 6.33333 6.40738H4.74074C4.74074 5.54318 5.04938 4.80244 5.66667 4.18516C6.28395 3.56787 7.03086 3.25923 7.90741 3.25923Z" fill="#77BFC0"/>
</svg>
