<svg width="15" height="14" viewBox="0 0 15 14" fill="none" xmlns="http://www.w3.org/2000/svg">
<g clip-path="url(#clip0_685_1187)">
<path d="M13.7941 6.52544C13.9386 6.41777 14.0458 6.26756 14.1007 6.09588C14.1556 5.9242 14.1553 5.73965 14.1 5.56812C14.0447 5.39659 13.9371 5.24667 13.7922 5.13938C13.6474 5.0321 13.4726 4.97283 13.2924 4.96989L9.79243 4.83766C9.77522 4.83648 9.75873 4.83034 9.74493 4.81999C9.73113 4.80964 9.72061 4.79552 9.71466 4.77933L8.50521 1.51267C8.44444 1.34647 8.33407 1.20296 8.18905 1.10157C8.04402 1.00018 7.87134 0.945801 7.69438 0.945801C7.51742 0.945801 7.34474 1.00018 7.19971 1.10157C7.05468 1.20296 6.94431 1.34647 6.88354 1.51267L5.67799 4.791C5.67203 4.80719 5.66152 4.82131 5.64772 4.83166C5.63392 4.84201 5.61742 4.84814 5.60021 4.84933L2.10021 4.98155C1.92 4.9845 1.74523 5.04377 1.60041 5.15105C1.45558 5.25833 1.34797 5.40825 1.29265 5.57979C1.23733 5.75132 1.23708 5.93587 1.29194 6.10755C1.3468 6.27923 1.45401 6.42944 1.59854 6.53711L4.3441 8.69544C4.35784 8.70626 4.36811 8.72086 4.37364 8.73745C4.37917 8.75404 4.37972 8.77188 4.37521 8.78878L3.43021 12.1371C3.38124 12.3076 3.38599 12.4891 3.4438 12.6568C3.50161 12.8245 3.60969 12.9703 3.75332 13.0744C3.89695 13.1786 4.06917 13.2359 4.24655 13.2387C4.42393 13.2414 4.59785 13.1895 4.74466 13.0899L7.64577 11.1454C7.66006 11.1356 7.67701 11.1303 7.69438 11.1303C7.71174 11.1303 7.7287 11.1356 7.74299 11.1454L10.6441 13.0899C10.7889 13.1929 10.9622 13.2482 11.1399 13.2482C11.3176 13.2482 11.4909 13.1929 11.6358 13.0899C11.7794 12.9868 11.8876 12.8416 11.9454 12.6745C12.0032 12.5074 12.0078 12.3264 11.9585 12.1566L11.0058 8.79655C11.0007 8.77969 11.001 8.76167 11.0066 8.74497C11.0121 8.72826 11.0227 8.71369 11.0369 8.70322L13.7941 6.52544Z" fill="#F4C757"/>
</g>
<defs>
<clipPath id="clip0_685_1187">
<rect width="14" height="14" fill="white" transform="translate(0.572266)"/>
</clipPath>
</defs>
</svg>
