<svg width="20" height="20" viewBox="0 0 20 20" fill="none" xmlns="http://www.w3.org/2000/svg">
<path d="M4.94677 7.91696H2.03067C1.80977 7.91592 1.59519 7.99074 1.42283 8.12892C1.25047 8.26709 1.13076 8.46025 1.08372 8.6761C0.488134 11.3303 0.468606 14.0814 1.02646 16.7439L1.08505 17.0247C1.13115 17.2427 1.25059 17.4383 1.42345 17.5789C1.59631 17.7195 1.81215 17.7966 2.03497 17.7973H4.94696C5.20419 17.7971 5.4508 17.6947 5.63268 17.5128C5.81456 17.3309 5.91687 17.0843 5.91716 16.8271V8.88715C5.91687 8.62989 5.81453 8.38326 5.63261 8.20137C5.45068 8.01948 5.20403 7.91719 4.94677 7.91696ZM4.66696 16.5473H2.26232L2.25025 16.4893C1.74415 14.0745 1.74626 11.5809 2.25642 9.16696H4.66696V16.5473ZM19.3148 10.8315L18.4519 8.53047C18.3838 8.35061 18.2627 8.19566 18.1046 8.08611C17.9466 7.97656 17.759 7.91757 17.5667 7.91696H12.9687V6.76324L13.3427 5.93512C13.5298 5.52067 13.633 5.07324 13.6462 4.61869C13.6595 4.16413 13.5825 3.71146 13.4198 3.28682C13.2571 2.86218 13.0118 2.47399 12.6982 2.14469C12.3846 1.81538 12.0088 1.55149 11.5926 1.36824C11.3651 1.26914 11.1077 1.26313 10.8758 1.35148C10.6438 1.43983 10.4557 1.61552 10.3517 1.8409L7.21454 8.70856V9.68758H8.14153L11.3554 2.65172C11.8091 2.93139 12.1454 3.36671 12.3015 3.8763C12.4576 4.38589 12.4228 4.93489 12.2035 5.42067L11.7742 6.37149L11.7187 6.62867V8.54196L12.3437 9.16696H17.3554L18.125 11.2188V11.581L15.4692 16.2486H10.5886L7.21454 14.2693V15.7185L10.0273 17.3686C10.1724 17.4537 10.3376 17.4986 10.5058 17.4986H15.6465C15.8134 17.4984 15.9773 17.4541 16.1216 17.3702C16.2659 17.2863 16.3854 17.1657 16.4681 17.0207L19.2513 12.129C19.3323 11.9865 19.3749 11.8254 19.375 11.6614V11.1635C19.375 11.0501 19.3546 10.9376 19.3148 10.8315Z" fill="white"/>
</svg>
