<svg width="1024" height="1024" viewBox="0 0 1024 1024" fill="none" xmlns="http://www.w3.org/2000/svg">
<path d="M94.4 992C41.6 992 17.6 953.6 41.6 907.2L468.8 67.2C492.8 20.8 531.2 20.8 555.2 67.2L982.4 907.2C1006.4 953.6 982.4 992 929.6 992H94.4Z" fill="#FFCE31"/>
<path d="M444.8 377.6L489.6 673.6C494.4 702.4 531.2 702.4 536 673.6L579.2 377.6C587.2 262.4 436.8 262.4 444.8 377.6" fill="#231F20"/>
<path d="M512 860.8C549.114 860.8 579.2 830.714 579.2 793.6C579.2 756.486 549.114 726.4 512 726.4C474.887 726.4 444.8 756.486 444.8 793.6C444.8 830.714 474.887 860.8 512 860.8Z" fill="#231F20"/>
</svg>
